<svg width="61" height="44" viewBox="0 0 61 44" fill="none" xmlns="http://www.w3.org/2000/svg">
<path d="M60.556 15.025H57.814V20.387H60.556V15.025Z" fill="white"/>
<path d="M28.268 8.57001H22.907V11.312H28.268V8.57001Z" fill="white"/>
<path d="M56.55 41.388L55.251 40.569L57.783 27.979L53.044 26.886L53.175 26.318L56.942 27.187L58.623 19.896L55.769 19.24L57.55 11.512C58.29 8.28899 58.003 6.49599 54.78 5.75599L34.732 1.13399C31.51 0.390994 30.581 1.39099 29.836 4.61099L27.943 12.825L25.089 12.169L23.407 19.457L28.144 20.551L26.913 25.896L28.951 28.158L49.122 32.808L51.579 31.58L50.238 37.401L44.559 33.813C44.559 33.813 36.174 29.317 33.835 31.656L29.687 35.805L25.525 31.643L27.954 21.102L22.366 19.813L20.516 27.835C18.539 27.336 16.362 27.852 14.816 29.397L4.705 39.508C3.559 40.654 1.512 42.151 0 43.655H58.913C58.27 42.968 57.404 42.246 56.55 41.388ZM29.703 17.758C29.397 19.077 28.082 19.902 26.762 19.597C25.443 19.292 24.619 17.978 24.923 16.658C25.23 15.339 26.544 14.515 27.862 14.819C29.184 15.124 30.008 16.44 29.703 17.758ZM56.717 23.723C56.412 25.042 55.096 25.867 53.777 25.563C52.458 25.257 51.633 23.943 51.939 22.623C52.243 21.304 53.558 20.479 54.877 20.784C56.199 21.088 57.02 22.404 56.717 23.723ZM45.959 25.987L33.807 23.187L35.208 17.11L47.358 19.912L45.959 25.987ZM31.701 11.225L33.42 3.77499L55.051 8.75999L53.331 16.212L31.701 11.225Z" fill="white"/>
</svg>
