<svg width="495" height="467" viewBox="0 0 495 467" fill="none" xmlns="http://www.w3.org/2000/svg">
<path d="M319.236 150.037C337.987 150.037 353.187 134.837 353.187 116.086C353.187 97.3354 337.987 82.135 319.236 82.135C300.485 82.135 285.285 97.3354 285.285 116.086C285.285 134.837 300.485 150.037 319.236 150.037Z" stroke="white" stroke-width="15" stroke-miterlimit="10" stroke-linecap="round" stroke-linejoin="round"/>
<path d="M135.348 150.037C154.099 150.037 169.299 134.837 169.299 116.086C169.299 97.3354 154.099 82.135 135.348 82.135C116.597 82.135 101.397 97.3354 101.397 116.086C101.397 134.837 116.597 150.037 135.348 150.037Z" stroke="white" stroke-width="15" stroke-miterlimit="10" stroke-linecap="round" stroke-linejoin="round"/>
<path d="M327.112 308.999L252.246 449.879C247.868 458.117 237.55 461.113 229.441 456.5C221.704 452.099 218.832 442.367 222.94 434.47L298.186 289.822L300.028 169.36" stroke="white" stroke-width="15" stroke-miterlimit="10" stroke-linecap="round" stroke-linejoin="round"/>
<path d="M368.263 417.207L378.026 442.905C381.637 451.307 391.757 454.695 399.699 450.16C406.14 446.482 409.02 438.717 406.537 431.728L389.685 384.298" stroke="white" stroke-width="15" stroke-miterlimit="10" stroke-linecap="round" stroke-linejoin="round"/>
<path d="M395.543 150.037C414.294 150.037 429.494 134.837 429.494 116.086C429.494 97.3354 414.294 82.135 395.543 82.135C376.792 82.135 361.592 97.3354 361.592 116.086C361.592 134.837 376.792 150.037 395.543 150.037Z" stroke="white" stroke-width="15" stroke-miterlimit="10" stroke-linecap="round" stroke-linejoin="round"/>
<path d="M404.621 306.738L328.553 449.879C324.175 458.117 313.857 461.113 305.748 456.5C298.011 452.099 295.139 442.367 299.247 434.47L374.493 289.822L376.335 169.36" stroke="white" stroke-width="15" stroke-miterlimit="10" stroke-linecap="round" stroke-linejoin="round"/>
<path d="M332.518 191.439L349.777 268.97" stroke="white" stroke-width="15" stroke-miterlimit="10" stroke-linecap="round" stroke-linejoin="round"/>
<path d="M409.827 196.929C409.827 196.929 412.446 169.913 429.5 158.793L456.4 225.405C460.111 234.595 457.103 245.131 449.099 250.976C441.076 256.835 430.093 256.477 422.469 250.106L388.739 221.921C382.427 216.647 381.016 207.505 385.443 200.574C390.783 192.215 402.276 190.497 409.827 196.929ZM409.827 196.929L425.019 209.871" stroke="white" stroke-width="15" stroke-miterlimit="10" stroke-linecap="round" stroke-linejoin="round"/>
<path d="M401.792 232.829C401.792 232.829 403.2 279.266 429.499 281.583L482.844 431.727C485.327 438.716 482.447 446.481 476.006 450.159C468.065 454.694 457.944 451.307 454.333 442.904L414.365 337.703" stroke="white" stroke-width="15" stroke-miterlimit="10" stroke-linecap="round" stroke-linejoin="round"/>
<path d="M445.749 142.201L475.132 193.813C475.132 193.813 513.025 244.912 454.991 281.183" stroke="white" stroke-width="15" stroke-miterlimit="10" stroke-linecap="round" stroke-linejoin="round"/>
<path d="M165.491 163.36L200.862 234.041C203.916 240.144 203.665 247.379 200.196 253.256L168.4 307.114C163.74 315.007 153.248 317.086 145.93 311.565C139.677 306.847 137.978 298.179 141.987 291.45L169.304 245.595L146.589 201.211" stroke="white" stroke-width="15" stroke-miterlimit="10" stroke-linecap="round" stroke-linejoin="round"/>
<path d="M96.457 158.793L58.118 174.912L35.171 118.797C32.238 111.625 24.1 108.125 16.877 110.928C9.545 113.774 5.919 122.033 8.787 129.356L35.145 196.668C39.403 207.542 52.016 212.491 62.532 207.415L95.634 191.438L96.456 281.182" stroke="white" stroke-width="15" stroke-miterlimit="10" stroke-linecap="round" stroke-linejoin="round"/>
<path d="M96.457 281.184L41.069 358.233L9.436 434.372C5.588 442.418 8.772 452.068 16.654 456.243C25.031 460.68 35.416 457.228 39.47 448.66L69.833 374.488L117.478 314.015" stroke="white" stroke-width="15" stroke-miterlimit="10" stroke-linecap="round" stroke-linejoin="round"/>
<path d="M118.478 348.758L193.963 451.83C199.021 459.047 209.203 460.322 215.884 454.575C221.64 449.623 222.752 441.136 218.467 434.868L146.823 334.036" stroke="white" stroke-width="15" stroke-miterlimit="10" stroke-linecap="round" stroke-linejoin="round"/>
<path d="M16.878 110.929V7.58301L72.925 36.413L16.878 59.256" stroke="white" stroke-width="15" stroke-miterlimit="10" stroke-linecap="round" stroke-linejoin="round"/>
</svg>
